<svg width="200" height="40" viewBox="0 0 200 40" fill="none" xmlns="http://www.w3.org/2000/svg">
<g clip-path="url(#clip0_42_1044)">
<path d="M19.2818 21.3356C17.461 22.2281 15.4622 22.6981 13.4345 22.7107C11.4068 22.7233 9.40239 22.2782 7.57064 21.4084L7.54417 39.4968H0V8.53479H7.54417C7.54417 9.68039 7.54417 10.826 7.54417 11.9716C9.42017 12.9754 11.5204 13.4863 13.6479 13.4561C15.6055 13.4232 17.5282 12.9321 19.2619 12.0223C19.2619 10.8591 19.2678 9.69656 19.2796 8.53479H26.8237V39.5056H19.2796C19.2796 33.4482 19.2803 27.3915 19.2818 21.3356Z" fill="#091071"/>
<path d="M7.56623 0H0V7.71844H7.56623V0Z" fill="#F249A8"/>
<path d="M26.8568 0H19.2795V7.71844H26.8568V0Z" fill="#F249A8"/>
<path d="M37.2797 19.8796C40.5422 19.8796 42.7944 21.4238 43.979 23.001V20.1951H48.0114V39.521H43.9768V36.6533C42.7481 38.3033 40.4341 39.8452 37.2069 39.8452C32.1929 39.8452 28.1627 35.7423 28.1627 29.7797C28.1627 23.8172 32.1929 19.8796 37.2797 19.8796ZM38.1224 23.3517C35.14 23.3517 32.2635 25.5973 32.2635 29.7709C32.2635 33.9445 35.1312 36.3643 38.1224 36.3643C41.1135 36.3643 43.979 34.015 43.979 29.8415C43.9768 25.7032 41.1356 23.3517 38.1201 23.3517H38.1224Z" fill="#091071"/>
<path d="M80.6631 28.7186C80.6631 25.1759 78.7351 23.3516 75.8234 23.3516C72.8763 23.3516 70.9483 25.1759 70.9483 28.7186V39.5275H66.9777V28.7186C66.9777 25.1759 65.0498 23.3516 62.138 23.3516C59.1909 23.3516 57.2629 25.1759 57.2629 28.7186V39.5275H53.2703V20.195H57.2696V22.4009C58.5666 20.8237 60.6711 19.8751 62.9872 19.8751C66.038 19.8795 68.6035 21.1766 69.927 23.7024C71.1182 21.3531 73.8535 19.8795 76.6594 19.8795C81.1859 19.8795 84.6227 22.7207 84.6227 28.123V39.5209H80.6521L80.6631 28.7186Z" fill="#091071"/>
<path d="M93.711 39.521H89.7117V20.1951H93.711V23.001C94.8338 21.073 96.7617 19.8796 99.497 19.8796V24.0201H98.4801C95.5352 24.0201 93.711 25.2466 93.711 29.3496V39.521Z" fill="#091071"/>
<path d="M111.563 39.8364C106.049 39.8364 101.882 35.9077 101.882 29.8415C101.882 23.7753 106.232 19.8796 111.738 19.8796C117.243 19.8796 121.594 23.773 121.594 29.8415C121.594 35.9099 117.105 39.8364 111.563 39.8364ZM111.563 36.3643C114.543 36.3643 117.491 34.2246 117.491 29.8415C117.491 25.4584 114.649 23.3517 111.667 23.3517C108.652 23.3517 105.951 25.4562 105.951 29.8415C105.951 34.2268 108.546 36.3643 111.563 36.3643Z" fill="#091071"/>
<path d="M143.882 19.7714C146.408 19.7714 149.072 20.9626 150.546 22.7869V13.4559H154.578V39.4105H150.546V36.501C149.317 38.2546 147.003 39.726 143.847 39.726C138.762 39.726 134.727 35.623 134.727 29.6605C134.727 23.6979 138.762 19.7714 143.882 19.7714ZM144.689 23.2435C141.707 23.2435 138.83 25.4869 138.83 29.6605C138.83 33.834 141.698 36.2539 144.689 36.2539C147.705 36.2539 150.546 33.9046 150.546 29.7311C150.546 25.5884 147.705 23.2435 144.689 23.2435V23.2435Z" fill="#091071"/>
<path d="M168.153 39.726C162.612 39.726 158.507 35.7995 158.507 29.7311C158.507 23.6627 162.436 19.7715 168.153 19.7715C173.668 19.7715 177.553 23.5943 177.553 29.2745C177.559 29.9324 177.511 30.5896 177.412 31.2399H162.645C162.928 34.4319 165.206 36.3598 168.16 36.3598C170.615 36.3598 171.983 35.1664 172.72 33.6598H177.032C175.938 37.026 172.887 39.726 168.153 39.726ZM162.681 28.0149H173.384C173.313 25.0326 170.957 23.1399 167.981 23.1399C165.277 23.1377 163.102 24.962 162.681 28.0149Z" fill="#091071"/>
<path d="M189.266 19.7715C192.529 19.7715 194.781 21.3156 195.965 22.8928V20.0869H200V39.4106H195.965V36.5429C194.739 38.1907 192.423 39.7327 189.198 39.7327C184.182 39.7327 180.154 35.6297 180.154 29.6671C180.154 23.7046 184.193 19.7715 189.266 19.7715ZM190.109 23.2436C187.129 23.2436 184.252 25.487 184.252 29.6605C184.252 33.8341 187.12 36.254 190.109 36.254C193.124 36.254 195.965 33.9047 195.965 29.7311C195.965 25.5884 193.124 23.2436 190.109 23.2436V23.2436Z" fill="#091071"/>
<path d="M132.718 3.48962H128.666V7.62348H132.718V3.48962Z" fill="#F249A8"/>
<path d="M128.666 8.63831H132.72V39.6312H128.666V8.63831Z" fill="#091071"/>
<g clip-path="url(#clip1_42_1044)">
<path d="M19.361 21.4231C17.5327 22.3193 15.5258 22.7912 13.4897 22.8039C11.4537 22.8165 9.44103 22.3695 7.60175 21.4962L7.57517 39.6589H0V8.5697H7.57517C7.57517 9.72001 7.57517 10.8703 7.57517 12.0206C9.45887 13.0286 11.5678 13.5415 13.704 13.5113C15.6696 13.4782 17.6002 12.9851 19.341 12.0716C19.341 10.9035 19.347 9.73625 19.3588 8.5697H26.9339V39.6678H19.3588C19.3588 33.5855 19.3595 27.5039 19.361 21.4231Z" fill="#091071"/>
<path d="M7.59732 0H0V7.75015H7.59732V0Z" fill="#F249A8"/>
<path d="M26.9672 0H19.3588V7.75015H26.9672V0Z" fill="#F249A8"/>
<path d="M37.4329 19.9613C40.7088 19.9613 42.9703 21.5118 44.1597 23.0955V20.278H48.2087V39.6833H44.1575V36.8039C42.9238 38.4607 40.6003 40.0089 37.3598 40.0089C32.3252 40.0089 28.2784 35.8891 28.2784 29.9021C28.2784 23.915 32.3252 19.9613 37.4329 19.9613ZM38.279 23.4477C35.2844 23.4477 32.3961 25.7025 32.3961 29.8932C32.3961 34.0839 35.2755 36.5137 38.279 36.5137C41.2825 36.5137 44.1597 34.1548 44.1597 29.9641C44.1575 25.8088 41.3046 23.4477 38.2768 23.4477H38.279Z" fill="#091071"/>
<path d="M80.9945 28.8366C80.9945 25.2793 79.0587 23.4476 76.1349 23.4476C73.1757 23.4476 71.2398 25.2793 71.2398 28.8366V39.6899H67.2529V28.8366C67.2529 25.2793 65.317 23.4476 62.3933 23.4476C59.4341 23.4476 57.4982 25.2793 57.4982 28.8366V39.6899H53.4891V20.278H57.5049V22.4929C58.8073 20.9092 60.9203 19.9568 63.246 19.9568C66.3093 19.9612 68.8853 21.2636 70.2143 23.7997C71.4104 21.4408 74.157 19.9612 76.9744 19.9612C81.5195 19.9612 84.9704 22.8141 84.9704 28.2385V39.6832H80.9835L80.9945 28.8366Z" fill="#091071"/>
<path d="M94.096 39.6833H90.0803V20.278H94.096V23.0955C95.2235 21.1596 97.1593 19.9613 99.9059 19.9613V24.1188H98.8848C95.9278 24.1188 94.096 25.3503 94.096 29.4701V39.6833Z" fill="#091071"/>
<path d="M112.022 40.0001C106.484 40.0001 102.3 36.0552 102.3 29.9641C102.3 23.8729 106.668 19.9613 112.197 19.9613C117.725 19.9613 122.093 23.8707 122.093 29.9641C122.093 36.0574 117.586 40.0001 112.022 40.0001ZM112.022 36.5137C115.014 36.5137 117.973 34.3652 117.973 29.9641C117.973 25.5629 115.12 23.4477 112.126 23.4477C109.098 23.4477 106.387 25.5607 106.387 29.9641C106.387 34.3674 108.992 36.5137 112.022 36.5137Z" fill="#091071"/>
</g>
</g>
<defs>
<clipPath id="clip0_42_1044">
<rect width="200" height="40" fill="white"/>
</clipPath>
<clipPath id="clip1_42_1044">
<rect width="122.093" height="40" fill="white"/>
</clipPath>
</defs>
</svg>
